<?xml version="1.0" encoding="UTF-8" standalone="no"?>
<!-- Created with Inkscape (http://www.inkscape.org/) -->

<svg
   width="210mm"
   height="297mm"
   viewBox="0 0 210 297"
   version="1.1"
   id="svg5"
   inkscape:version="1.1.2 (0a00cf5339, 2022-02-04)"
   sodipodi:docname="concept.svg"
   xmlns:inkscape="http://www.inkscape.org/namespaces/inkscape"
   xmlns:sodipodi="http://sodipodi.sourceforge.net/DTD/sodipodi-0.dtd"
   xmlns="http://www.w3.org/2000/svg"
   xmlns:svg="http://www.w3.org/2000/svg">
  <sodipodi:namedview
     id="namedview7"
     pagecolor="#ffffff"
     bordercolor="#666666"
     borderopacity="1.0"
     inkscape:pageshadow="2"
     inkscape:pageopacity="0.0"
     inkscape:pagecheckerboard="0"
     inkscape:document-units="mm"
     showgrid="false"
     inkscape:zoom="0.54866744"
     inkscape:cx="391.8585"
     inkscape:cy="689.85321"
     inkscape:window-width="1869"
     inkscape:window-height="1056"
     inkscape:window-x="51"
     inkscape:window-y="0"
     inkscape:window-maximized="1"
     inkscape:current-layer="layer1" />
  <defs
     id="defs2" />
  <g
     inkscape:label="Layer 1"
     inkscape:groupmode="layer"
     id="layer1">
    <path
       style="fill:none;stroke:#000000;stroke-width:0.264583px;stroke-linecap:butt;stroke-linejoin:miter;stroke-opacity:1"
       d="m 12.744185,43.138565 c 0.353586,9.541043 -0.05716,19.106892 0.119618,28.653048 0.02954,1.595056 0.211188,3.183784 0.340987,4.773824 0.32486,3.979534 0.592133,7.965096 1.022962,11.934557 0.587299,5.411102 1.662055,10.729936 1.891779,16.186726 0.03552,0.84385 -0.03937,1.69011 0,2.53379 0.153774,3.29562 0.467673,6.66716 0.237113,9.9764 -0.383139,5.4992 -0.03566,-5.32984 -0.415619,4.70041 -0.06269,1.65479 0.09315,3.31457 0,4.96792 -0.06976,1.23813 -0.562091,4.51623 -0.894697,5.68035 -0.02208,0.0773 -0.162445,0.0905 -0.170494,0.17049 -0.0051,0.0509 0.102977,0.009 0.153334,0 1.441923,-0.25048 2.871902,-0.57377 4.3212,-0.77729 2.813079,-0.39503 5.648982,-0.61557 8.461061,-1.01766 22.911146,-3.27606 13.985523,-2.49402 31.711825,-4.43284 3.406564,-0.37259 6.822342,-0.65694 10.22962,-1.02296 1.703266,-0.18297 3.406905,-0.37091 5.10118,-0.62394 0.31955,-0.0477 0.287994,-0.25614 0.545695,-0.19661 6.392923,1.47651 12.555159,3.62504 18.977308,5.02039 1.354667,0.29433 2.730662,0.48062 4.092475,0.73989 0.286346,0.0545 0.614136,0.33064 0.857696,0.17049 0.881992,-0.57995 -0.12668,-2.11879 0,-3.16674 0.39912,-3.30195 1.143862,-6.55539 1.560662,-9.85516 0.55843,-4.42096 1.03233,-8.85478 1.36395,-13.29851 0.43835,-5.873895 0.34099,-11.845218 0.34099,-17.731348 0,-2.614237 0.12604,-5.231513 0,-7.84271 -0.20815,-4.312253 -1.13463,-8.585189 -2.22868,-12.736219 -0.479472,-0.982114 -0.34164,-2.086819 -0.598662,-3.111135 -0.6454,-2.572072 -1.868626,-4.91028 -2.386913,-7.501722 -0.527912,-2.63956 -0.721997,-5.206111 -0.721997,-7.885697 0,-0.134502 0.34227,-2.050817 0.170494,-2.156991 -0.918765,-0.567889 -1.789631,-1.25466 -2.805715,-1.620993 -1.556986,-0.561345 -3.202834,-0.853992 -4.83416,-1.133439 -5.14781,-0.881822 -10.326619,-1.572037 -15.491396,-2.348339 -3.067918,-0.461129 -6.125255,-1.003785 -9.206659,-1.363949 -5.672849,-0.66306 -11.367786,-1.121425 -17.049369,-1.704937 -4.688014,-0.481471 -5.731454,-0.748715 -10.049875,-0.921797 -2.046581,-0.08203 -4.096448,0 -6.144672,0 -2.082218,0 -4.170291,-0.156078 -6.246652,0 -3.66295,0.275342 -4.678503,0.668949 -8.237278,1.651455 -1.110042,0.30646 -2.135112,0.491672 -3.109386,1.054969 -0.412279,0.238367 -0.578349,2.001963 -0.340988,2.445839 0.06434,0.120313 0.434622,0.296509 0.327002,0.471045 -0.278801,0.452155 -0.595826,0.879596 -0.893739,1.319393 z"
       id="path75" />
    <text
       xml:space="preserve"
       style="font-style:normal;font-weight:normal;font-size:10.5833px;line-height:1.25;font-family:sans-serif;fill:#000000;fill-opacity:1;stroke:none;stroke-width:0.264583"
       x="29.33939"
       y="53.448795"
       id="text3533"><tspan
         sodipodi:role="line"
         id="tspan3531"
         style="stroke-width:0.264583"
         x="29.33939"
         y="53.448795">home</tspan></text>
    <path
       style="fill:none;stroke:#000000;stroke-width:0.264583px;stroke-linecap:butt;stroke-linejoin:miter;stroke-opacity:1"
       d="m 113.31194,46.909114 c 0.35359,9.541043 -0.0572,19.106892 0.11962,28.653048 0.0295,1.595056 0.21119,3.183784 0.34099,4.773824 0.32486,3.979534 0.59213,7.965096 1.02296,11.934557 0.5873,5.411102 1.66206,10.729937 1.89178,16.186727 0.0355,0.84385 -0.0394,1.69011 0,2.53378 0.15377,3.29563 0.46767,6.66717 0.23711,9.9764 -0.38314,5.49921 -0.0357,-5.32983 -0.41562,4.70042 -0.0627,1.65479 0.0931,3.31457 0,4.96792 -0.0698,1.23813 -0.56209,4.51623 -0.89469,5.68035 -0.0221,0.0773 -0.16245,0.0905 -0.1705,0.17049 -0.005,0.0509 0.10298,0.009 0.15334,0 1.44192,-0.25048 2.8719,-0.57377 4.3212,-0.77729 2.81308,-0.39503 5.64898,-0.61557 8.46106,-1.01767 22.91114,-3.27606 13.98552,-2.49402 31.71182,-4.43283 3.40657,-0.37259 6.82234,-0.65694 10.22962,-1.02296 1.70327,-0.18298 3.40691,-0.37091 5.10118,-0.62394 0.31955,-0.0477 0.288,-0.25614 0.5457,-0.19662 6.39292,1.47652 12.55516,3.62505 18.97731,5.0204 1.35466,0.29433 2.73066,0.48062 4.09247,0.73988 0.28635,0.0545 0.61414,0.33064 0.8577,0.1705 0.88199,-0.57995 -0.12668,-2.11879 0,-3.16674 0.39912,-3.30195 1.14386,-6.55539 1.56066,-9.85517 0.55843,-4.42096 1.03233,-8.85477 1.36395,-13.2985 0.43835,-5.8739 0.34099,-11.845219 0.34099,-17.731349 0,-2.614237 0.12604,-5.231513 0,-7.84271 -0.20815,-4.312253 -1.13463,-8.585189 -2.22868,-12.736219 -0.47947,-0.982114 -0.34164,-2.086819 -0.59866,-3.111135 -0.6454,-2.572072 -1.86863,-4.91028 -2.38692,-7.501722 -0.52791,-2.63956 -0.72199,-5.206111 -0.72199,-7.885697 0,-0.134502 0.34227,-2.050817 0.17049,-2.156991 -0.91876,-0.567889 -1.78963,-1.25466 -2.80571,-1.620993 -1.55699,-0.561345 -3.20284,-0.853992 -4.83416,-1.133439 -5.14781,-0.881822 -10.32662,-1.572036 -15.4914,-2.348338 -3.06792,-0.461129 -6.12526,-1.003785 -9.20666,-1.363949 -5.67285,-0.663061 -11.36779,-1.121425 -17.04937,-1.704937 -4.68801,-0.481471 -5.73145,-0.748715 -10.04987,-0.921797 -2.04658,-0.08203 -4.09645,0 -6.14468,0 -2.08221,0 -4.17029,-0.156079 -6.24665,0 -3.66295,0.275342 -4.6785,0.668948 -8.23728,1.651455 -1.11004,0.30646 -2.13511,0.491671 -3.10938,1.054968 -0.41228,0.238368 -0.57835,2.001964 -0.34099,2.445839 0.0643,0.120314 0.43462,0.296509 0.327,0.471046 -0.2788,0.452155 -0.59582,0.879595 -0.89374,1.319392 z"
       id="path3615" />
    <text
       xml:space="preserve"
       style="font-style:normal;font-weight:normal;font-size:10.5833px;line-height:1.25;font-family:sans-serif;fill:#000000;fill-opacity:1;stroke:none;stroke-width:0.264583"
       x="129.90715"
       y="57.219345"
       id="text3619"><tspan
         sodipodi:role="line"
         id="tspan3617"
         style="stroke-width:0.264583"
         x="129.90715"
         y="57.219345">menu</tspan></text>
    <path
       style="fill:none;stroke:#000000;stroke-width:0.264583px;stroke-linecap:butt;stroke-linejoin:miter;stroke-opacity:1"
       d="m 9.5750216,159.82856 c 0.35359,9.54105 -0.0572,19.1069 0.11962,28.65305 0.0295,1.59506 0.21119,3.18379 0.3409904,4.77383 0.32486,3.97953 0.59213,7.96509 1.02296,11.93455 0.5873,5.41111 1.66206,10.72994 1.89178,16.18673 0.0355,0.84385 -0.0394,1.69011 0,2.53379 0.15377,3.29562 0.46767,6.66716 0.23711,9.9764 -0.38314,5.4992 -0.0357,-5.32984 -0.41562,4.70041 -0.0627,1.65479 0.0931,3.31457 0,4.96792 -0.0698,1.23813 -0.56209,4.51623 -0.89469,5.68035 -0.0221,0.0773 -0.16245,0.0905 -0.1705,0.17049 -0.005,0.0509 0.10298,0.009 0.15334,0 1.44192,-0.25048 2.8719,-0.57377 4.3212,-0.77729 2.81308,-0.39503 5.64898,-0.61557 8.46106,-1.01767 22.91114,-3.27605 13.98552,-2.49401 31.71182,-4.43283 3.40657,-0.37259 6.82234,-0.65694 10.22962,-1.02296 1.70327,-0.18297 3.40691,-0.37091 5.10118,-0.62394 0.31955,-0.0477 0.288,-0.25614 0.5457,-0.19661 6.39292,1.47651 12.55516,3.62504 18.97731,5.02039 1.35466,0.29433 2.73066,0.48062 4.09247,0.73988 0.28635,0.0545 0.61414,0.33064 0.8577,0.1705 0.88199,-0.57995 -0.12668,-2.11879 0,-3.16674 0.39912,-3.30195 1.14386,-6.55539 1.56066,-9.85516 0.55843,-4.42096 1.032326,-8.85478 1.363946,-13.29851 0.43835,-5.8739 0.34099,-11.84522 0.34099,-17.73135 0,-2.61424 0.12604,-5.23151 0,-7.84271 -0.20815,-4.31225 -1.134626,-8.58519 -2.228676,-12.73622 -0.47947,-0.98211 -0.34164,-2.08682 -0.59866,-3.11113 -0.6454,-2.57207 -1.86863,-4.91028 -2.38692,-7.50172 -0.52791,-2.63956 -0.72199,-5.20612 -0.72199,-7.8857 0,-0.1345 0.34227,-2.05082 0.17049,-2.15699 -0.91876,-0.56789 -1.78963,-1.25466 -2.80571,-1.621 -1.55699,-0.56134 -3.20284,-0.85399 -4.83416,-1.13343 -5.14781,-0.88183 -10.32662,-1.57204 -15.4914,-2.34834 -3.06792,-0.46113 -6.12526,-1.00379 -9.20666,-1.36395 -5.67285,-0.66306 -11.36779,-1.12143 -17.04937,-1.70494 -4.68801,-0.48147 -5.73145,-0.74871 -10.04987,-0.9218 -2.04658,-0.082 -4.09645,0 -6.14468,0 -2.08221,0 -4.17029,-0.15607 -6.24665,0 -3.66295,0.27535 -4.6785,0.66895 -8.23728,1.65146 -1.11004,0.30646 -2.13511,0.49167 -3.10938,1.05497 -0.41228,0.23837 -0.5783504,2.00196 -0.34099,2.44584 0.0643,0.12031 0.43462,0.29651 0.327,0.47104 -0.2788,0.45216 -0.5958204,0.8796 -0.8937404,1.31939 z"
       id="path5265" />
    <text
       xml:space="preserve"
       style="font-style:normal;font-weight:normal;font-size:10.5833px;line-height:1.25;font-family:sans-serif;fill:#000000;fill-opacity:1;stroke:none;stroke-width:0.264583"
       x="26.170237"
       y="170.13879"
       id="text5269"><tspan
         sodipodi:role="line"
         id="tspan5267"
         style="stroke-width:0.264583"
         x="26.170237"
         y="170.13879">stores</tspan></text>
    <path
       style="fill:none;stroke:#000000;stroke-width:0.264583px;stroke-linecap:butt;stroke-linejoin:miter;stroke-opacity:1"
       d="m 108.08,160.28077 c 0.35359,9.54105 -0.0572,19.1069 0.11962,28.65305 0.0295,1.59506 0.21119,3.18379 0.34099,4.77383 0.32486,3.97953 0.59213,7.96509 1.02296,11.93455 0.5873,5.41111 1.66206,10.72994 1.89178,16.18673 0.0355,0.84385 -0.0394,1.69011 0,2.53379 0.15377,3.29562 0.46767,6.66716 0.23711,9.9764 -0.38314,5.4992 -0.0357,-5.32984 -0.41562,4.70041 -0.0627,1.65479 0.0931,3.31457 0,4.96792 -0.0698,1.23813 -0.56209,4.51623 -0.89469,5.68035 -0.0221,0.0773 -0.16245,0.0905 -0.1705,0.17049 -0.005,0.0509 0.10298,0.009 0.15334,0 1.44192,-0.25048 2.8719,-0.57377 4.3212,-0.77729 2.81308,-0.39503 5.64898,-0.61557 8.46106,-1.01767 22.91114,-3.27605 13.98552,-2.49401 31.71182,-4.43283 3.40657,-0.37259 6.82234,-0.65694 10.22962,-1.02296 1.70327,-0.18297 3.40691,-0.37091 5.10118,-0.62394 0.31955,-0.0477 0.288,-0.25614 0.5457,-0.19661 6.39292,1.47651 12.55516,3.62504 18.97731,5.02039 1.35466,0.29433 2.73066,0.48062 4.09247,0.73988 0.28635,0.0545 0.61414,0.33064 0.8577,0.1705 0.88199,-0.57995 -0.12668,-2.11879 0,-3.16674 0.39912,-3.30195 1.14386,-6.55539 1.56066,-9.85516 0.55843,-4.42096 1.03232,-8.85478 1.36394,-13.29851 0.43835,-5.8739 0.34099,-11.84522 0.34099,-17.73135 0,-2.61424 0.12604,-5.23151 0,-7.84271 -0.20815,-4.31225 -1.13462,-8.58519 -2.22867,-12.73622 -0.47947,-0.98211 -0.34164,-2.08682 -0.59866,-3.11113 -0.6454,-2.57207 -1.86863,-4.91028 -2.38692,-7.50172 -0.52791,-2.63956 -0.72199,-5.20612 -0.72199,-7.8857 0,-0.1345 0.34227,-2.05082 0.17049,-2.15699 -0.91876,-0.56789 -1.78963,-1.25466 -2.80571,-1.621 -1.55699,-0.56134 -3.20284,-0.85399 -4.83416,-1.13343 -5.14781,-0.88183 -10.32662,-1.57204 -15.4914,-2.34834 -3.06792,-0.46113 -6.12526,-1.00379 -9.20666,-1.36395 -5.67285,-0.66306 -11.36779,-1.12143 -17.04937,-1.70494 -4.68801,-0.48147 -5.73145,-0.74871 -10.04987,-0.9218 -2.04658,-0.082 -4.09645,0 -6.14468,0 -2.08221,0 -4.17029,-0.15607 -6.24665,0 -3.66295,0.27535 -4.6785,0.66895 -8.23728,1.65146 -1.11004,0.30646 -2.13511,0.49167 -3.10938,1.05497 -0.41228,0.23837 -0.57835,2.00196 -0.34099,2.44584 0.0643,0.12031 0.43462,0.29651 0.327,0.47104 -0.2788,0.45216 -0.59582,0.8796 -0.89374,1.31939 z"
       id="path7248" />
    <text
       xml:space="preserve"
       style="font-style:normal;font-weight:normal;font-size:10.5833px;line-height:1.25;font-family:sans-serif;fill:#000000;fill-opacity:1;stroke:none;stroke-width:0.264583"
       x="124.67521"
       y="170.591"
       id="text7252"><tspan
         sodipodi:role="line"
         id="tspan7250"
         style="stroke-width:0.264583"
         x="124.67521"
         y="170.591">order</tspan></text>
  </g>
</svg>
